<svg viewBox="0 0 24.00 24.00" fill="none" xmlns="http://www.w3.org/2000/svg" stroke="#000000" stroke-width="0.504" transform="rotate(0)">
  <path fill-rule="evenodd" clip-rule="evenodd" d="M2.29289 2.29289C2.68342 1.90237 3.31658 1.90237 3.70711 2.29289L6.5 5.08579L9.29289 2.29289C9.68342 1.90237 10.3166 1.90237 10.7071 2.29289C11.0976 2.68342 11.0976 3.31658 10.7071 3.70711L7.91421 6.5L10.7071 9.29289C11.0976 9.68342 11.0976 10.3166 10.7071 10.7071C10.3166 11.0976 9.68342 11.0976 9.29289 10.7071L6.5 7.91421L3.70711 10.7071C3.31658 11.0976 2.68342 11.0976 2.29289 10.7071C1.90237 10.3166 1.90237 9.68342 2.29289 9.29289L5.08579 6.5L2.29289 3.70711C1.90237 3.31658 1.90237 2.68342 2.29289 2.29289Z" fill="#FFF"></path>
</svg>
