<svg xmlns="http://www.w3.org/2000/svg" xmlns:xlink="http://www.w3.org/1999/xlink" version="1.1" width="80" height="80" viewBox="0 0 1080 1080" xml:space="preserve">
<g transform="matrix(1 0 0 1 540 540)" id="82963bd8-0923-4f46-b5f3-b6f7f1037608"  >
</g>
<g transform="matrix(61.27 0 0 60.99 539.66 539.18)"  >
<path style="stroke: rgb(0,0,0); stroke-width: 0.504; stroke-dasharray: none; stroke-linecap: butt; stroke-dashoffset: 0; stroke-linejoin: miter; stroke-miterlimit: 4; fill: rgb(255,255,255); fill-rule: evenodd; opacity: 1;"  transform=" translate(-6.5, -6.5)" d="M 2.29289 2.29289 C 2.68342 1.90237 3.31658 1.90237 3.70711 2.29289 L 6.5 5.08579 L 9.29289 2.29289 C 9.68342 1.90237 10.3166 1.90237 10.7071 2.29289 C 11.0976 2.68342 11.0976 3.31658 10.7071 3.70711 L 7.91421 6.5 L 10.7071 9.29289 C 11.0976 9.68342 11.0976 10.3166 10.7071 10.7071 C 10.3166 11.0976 9.68342 11.0976 9.29289 10.7071 L 6.5 7.91421 L 3.70711 10.7071 C 3.31658 11.0976 2.68342 11.0976 2.29289 10.7071 C 1.90237 10.3166 1.90237 9.68342 2.29289 9.29289 L 5.08579 6.5 L 2.29289 3.70711 C 1.90237 3.31658 1.90237 2.68342 2.29289 2.29289 Z" stroke-linecap="round" />
</g>
</svg>